<svg width="230" height="252" viewBox="0 0 230 252" fill="none" xmlns="http://www.w3.org/2000/svg">
<g filter="url(#filter0_dddddd_1_219)">
<rect x="80" y="2" width="70" height="70" fill="#2A9D8F"/>
</g>
<path d="M109.393 49.9306L107.863 51.6589L102.4 45.6492L106.314 41.2626C107.106 40.3676 108.106 39.7433 109.199 39.4614C110.292 39.1795 111.433 39.2513 112.491 39.6688L113.351 40.008H118.626C118.849 40.0079 119.07 40.0584 119.276 40.1565C119.481 40.2547 119.667 40.3984 119.823 40.5793C119.978 40.7601 120.1 40.9744 120.18 41.2093C120.261 41.4443 120.299 41.6951 120.292 41.9469C120.266 42.4447 120.072 42.9121 119.748 43.2516C119.425 43.5911 118.998 43.7764 118.556 43.7688H115.392C115.22 43.7688 115.055 43.8458 114.934 43.983C114.812 44.1201 114.744 44.306 114.744 44.4999C114.744 44.6938 114.812 44.8798 114.934 45.0169C115.055 45.154 115.22 45.231 115.392 45.231H118.567C119.341 45.2353 120.088 44.9031 120.651 44.3032C121.215 43.7033 121.553 42.8816 121.594 42.0083C121.594 41.9937 121.594 41.9791 121.594 41.9615L124.531 38.227C124.83 37.8361 125.25 37.59 125.705 37.5399C126.16 37.4898 126.614 37.6395 126.974 37.958C127.152 38.1244 127.298 38.3293 127.405 38.5608C127.512 38.7922 127.576 39.0454 127.595 39.3054C127.613 39.5655 127.586 39.8271 127.513 40.0748C127.441 40.3226 127.325 40.5514 127.173 40.7479L121.31 48.3514C120.923 48.8523 120.445 49.2535 119.909 49.528C119.372 49.8024 118.79 49.9437 118.202 49.9423L109.393 49.9306ZM121.501 33.3988C121.501 33.0304 121.372 32.6771 121.141 32.4165C120.91 32.156 120.597 32.0097 120.271 32.0097H118.458V29.9626C118.444 29.6056 118.308 29.2686 118.079 29.0218C117.85 28.7749 117.546 28.6372 117.229 28.6372C116.913 28.6372 116.608 28.7749 116.379 29.0218C116.151 29.2686 116.015 29.6056 116 29.9626V32.0097H114.187C114.021 32.0011 113.855 32.0306 113.699 32.0964C113.544 32.1623 113.401 32.2631 113.281 32.3928C113.161 32.5225 113.065 32.6784 113 32.8511C112.934 33.0237 112.901 33.2095 112.901 33.3973C112.901 33.5851 112.934 33.7709 113 33.9436C113.065 34.1163 113.161 34.2721 113.281 34.4018C113.401 34.5316 113.544 34.6324 113.699 34.6982C113.855 34.7641 114.021 34.7936 114.187 34.785H116V36.8321C116.015 37.1891 116.151 37.526 116.379 37.7729C116.608 38.0197 116.913 38.1575 117.229 38.1575C117.546 38.1575 117.85 38.0197 118.079 37.7729C118.308 37.526 118.444 37.1891 118.458 36.8321V34.785H120.271C120.597 34.785 120.909 34.639 121.14 34.3791C121.371 34.1193 121.501 33.7667 121.501 33.3988ZM109.707 25.7017V27.2107H108.373C108.132 27.2107 107.902 27.3185 107.732 27.5105C107.562 27.7024 107.466 27.9628 107.466 28.2342C107.466 28.5057 107.562 28.766 107.732 28.958C107.902 29.15 108.132 29.2578 108.373 29.2578H109.709V30.7668C109.709 31.0383 109.805 31.2986 109.975 31.4906C110.145 31.6825 110.375 31.7904 110.616 31.7904C110.856 31.7904 111.087 31.6825 111.257 31.4906C111.427 31.2986 111.522 31.0383 111.522 30.7668V29.2519H112.851C113.091 29.2519 113.322 29.1441 113.492 28.9522C113.662 28.7602 113.757 28.4999 113.757 28.2284C113.757 27.9569 113.662 27.6966 113.492 27.5046C113.322 27.3127 113.091 27.2048 112.851 27.2048H111.514V25.7017C111.514 25.4302 111.419 25.1699 111.249 24.9779C111.079 24.786 110.848 24.6781 110.608 24.6781C110.368 24.6781 110.137 24.786 109.967 24.9779C109.797 25.1699 109.701 25.4302 109.701 25.7017H109.707ZM121.141 22.9995C120.935 22.9995 120.738 23.0919 120.592 23.2565C120.446 23.421 120.364 23.6442 120.364 23.8768V25.1753H119.214C119.008 25.1753 118.811 25.2677 118.665 25.4323C118.519 25.5968 118.437 25.8199 118.437 26.0526C118.437 26.2853 118.519 26.5085 118.665 26.673C118.811 26.8375 119.008 26.9299 119.214 26.9299H120.364V28.2284C120.364 28.4611 120.446 28.6842 120.592 28.8488C120.738 29.0133 120.935 29.1057 121.141 29.1057C121.347 29.1057 121.545 29.0133 121.691 28.8488C121.836 28.6842 121.918 28.4611 121.918 28.2284V26.9299H123.068C123.17 26.9299 123.271 26.9073 123.365 26.8632C123.46 26.8191 123.545 26.7545 123.618 26.673C123.69 26.5915 123.747 26.4948 123.786 26.3884C123.825 26.2819 123.845 26.1678 123.845 26.0526C123.845 25.9374 123.825 25.8233 123.786 25.7169C123.747 25.6104 123.69 25.5137 123.618 25.4323C123.545 25.3508 123.46 25.2862 123.365 25.2421C123.271 25.198 123.17 25.1753 123.068 25.1753H121.918V23.8768C121.918 23.6442 121.836 23.421 121.691 23.2565C121.545 23.0919 121.347 22.9995 121.141 22.9995Z" fill="white"/>
<defs>
<filter id="filter0_dddddd_1_219" x="0" y="0.703704" width="230" height="251.296" filterUnits="userSpaceOnUse" color-interpolation-filters="sRGB">
<feFlood flood-opacity="0" result="BackgroundImageFix"/>
<feColorMatrix in="SourceAlpha" type="matrix" values="0 0 0 0 0 0 0 0 0 0 0 0 0 0 0 0 0 0 127 0" result="hardAlpha"/>
<feOffset dy="1.85185"/>
<feGaussianBlur stdDeviation="1.57407"/>
<feColorMatrix type="matrix" values="0 0 0 0 0.301961 0 0 0 0 0.87451 0 0 0 0 0.992157 0 0 0 0.0168519 0"/>
<feBlend mode="normal" in2="BackgroundImageFix" result="effect1_dropShadow_1_219"/>
<feColorMatrix in="SourceAlpha" type="matrix" values="0 0 0 0 0 0 0 0 0 0 0 0 0 0 0 0 0 0 127 0" result="hardAlpha"/>
<feOffset dy="8.14815"/>
<feGaussianBlur stdDeviation="3.25926"/>
<feColorMatrix type="matrix" values="0 0 0 0 0.301961 0 0 0 0 0.87451 0 0 0 0 0.992157 0 0 0 0.0274815 0"/>
<feBlend mode="normal" in2="effect1_dropShadow_1_219" result="effect2_dropShadow_1_219"/>
<feColorMatrix in="SourceAlpha" type="matrix" values="0 0 0 0 0 0 0 0 0 0 0 0 0 0 0 0 0 0 127 0" result="hardAlpha"/>
<feOffset dy="20"/>
<feGaussianBlur stdDeviation="6.5"/>
<feColorMatrix type="matrix" values="0 0 0 0 0.301961 0 0 0 0 0.87451 0 0 0 0 0.992157 0 0 0 0.035 0"/>
<feBlend mode="normal" in2="effect2_dropShadow_1_219" result="effect3_dropShadow_1_219"/>
<feColorMatrix in="SourceAlpha" type="matrix" values="0 0 0 0 0 0 0 0 0 0 0 0 0 0 0 0 0 0 127 0" result="hardAlpha"/>
<feOffset dy="38.5185"/>
<feGaussianBlur stdDeviation="12.7407"/>
<feColorMatrix type="matrix" values="0 0 0 0 0.301961 0 0 0 0 0.87451 0 0 0 0 0.992157 0 0 0 0.0425185 0"/>
<feBlend mode="normal" in2="effect3_dropShadow_1_219" result="effect4_dropShadow_1_219"/>
<feColorMatrix in="SourceAlpha" type="matrix" values="0 0 0 0 0 0 0 0 0 0 0 0 0 0 0 0 0 0 127 0" result="hardAlpha"/>
<feOffset dy="64.8148"/>
<feGaussianBlur stdDeviation="23.4259"/>
<feColorMatrix type="matrix" values="0 0 0 0 0.301961 0 0 0 0 0.87451 0 0 0 0 0.992157 0 0 0 0.0531481 0"/>
<feBlend mode="normal" in2="effect4_dropShadow_1_219" result="effect5_dropShadow_1_219"/>
<feColorMatrix in="SourceAlpha" type="matrix" values="0 0 0 0 0 0 0 0 0 0 0 0 0 0 0 0 0 0 127 0" result="hardAlpha"/>
<feOffset dy="100"/>
<feGaussianBlur stdDeviation="40"/>
<feColorMatrix type="matrix" values="0 0 0 0 0.301961 0 0 0 0 0.87451 0 0 0 0 0.992157 0 0 0 0.07 0"/>
<feBlend mode="normal" in2="effect5_dropShadow_1_219" result="effect6_dropShadow_1_219"/>
<feBlend mode="normal" in="SourceGraphic" in2="effect6_dropShadow_1_219" result="shape"/>
</filter>
</defs>
</svg>
